<mxfile host="app.diagrams.net" agent="Mozilla/5.0 (Windows NT 10.0; Win64; x64) AppleWebKit/537.36 (KHTML, like Gecko) Chrome/141.0.0.0 Safari/537.36" version="28.2.7">
  <diagram id="C5RBs43oDa-KdzZeNtuy" name="Page-1">
    <mxGraphModel dx="2334" dy="1983" grid="1" gridSize="10" guides="1" tooltips="1" connect="1" arrows="1" fold="1" page="1" pageScale="1" pageWidth="827" pageHeight="1169" math="0" shadow="0">
      <root>
        <mxCell id="WIyWlLk6GJQsqaUBKTNV-0" />
        <mxCell id="WIyWlLk6GJQsqaUBKTNV-1" parent="WIyWlLk6GJQsqaUBKTNV-0" />
        <mxCell id="zkfFHV4jXpPFQw0GAbJ--0" value="Product" style="swimlane;fontStyle=2;align=center;verticalAlign=top;childLayout=stackLayout;horizontal=1;startSize=26;horizontalStack=0;resizeParent=1;resizeLast=0;collapsible=1;marginBottom=0;rounded=0;shadow=0;strokeWidth=1;" parent="WIyWlLk6GJQsqaUBKTNV-1" vertex="1">
          <mxGeometry y="50" width="130" height="242" as="geometry">
            <mxRectangle x="220" y="120" width="160" height="26" as="alternateBounds" />
          </mxGeometry>
        </mxCell>
        <mxCell id="zkfFHV4jXpPFQw0GAbJ--1" value="id: int" style="text;align=left;verticalAlign=top;spacingLeft=4;spacingRight=4;overflow=hidden;rotatable=0;points=[[0,0.5],[1,0.5]];portConstraint=eastwest;" parent="zkfFHV4jXpPFQw0GAbJ--0" vertex="1">
          <mxGeometry y="26" width="130" height="26" as="geometry" />
        </mxCell>
        <mxCell id="zkfFHV4jXpPFQw0GAbJ--2" value="name: str" style="text;align=left;verticalAlign=top;spacingLeft=4;spacingRight=4;overflow=hidden;rotatable=0;points=[[0,0.5],[1,0.5]];portConstraint=eastwest;rounded=0;shadow=0;html=0;" parent="zkfFHV4jXpPFQw0GAbJ--0" vertex="1">
          <mxGeometry y="52" width="130" height="26" as="geometry" />
        </mxCell>
        <mxCell id="zkfFHV4jXpPFQw0GAbJ--3" value="category: str" style="text;align=left;verticalAlign=top;spacingLeft=4;spacingRight=4;overflow=hidden;rotatable=0;points=[[0,0.5],[1,0.5]];portConstraint=eastwest;rounded=0;shadow=0;html=0;" parent="zkfFHV4jXpPFQw0GAbJ--0" vertex="1">
          <mxGeometry y="78" width="130" height="26" as="geometry" />
        </mxCell>
        <mxCell id="DKI0FBBjCw4Z8pUlrbn_-0" value="price: floatÂ " style="text;align=left;verticalAlign=top;spacingLeft=4;spacingRight=4;overflow=hidden;rotatable=0;points=[[0,0.5],[1,0.5]];portConstraint=eastwest;rounded=0;shadow=0;html=0;" parent="zkfFHV4jXpPFQw0GAbJ--0" vertex="1">
          <mxGeometry y="104" width="130" height="26" as="geometry" />
        </mxCell>
        <mxCell id="DKI0FBBjCw4Z8pUlrbn_-1" value="stock: int" style="text;align=left;verticalAlign=top;spacingLeft=4;spacingRight=4;overflow=hidden;rotatable=0;points=[[0,0.5],[1,0.5]];portConstraint=eastwest;rounded=0;shadow=0;html=0;" parent="zkfFHV4jXpPFQw0GAbJ--0" vertex="1">
          <mxGeometry y="130" width="130" height="26" as="geometry" />
        </mxCell>
        <mxCell id="zkfFHV4jXpPFQw0GAbJ--4" value="" style="line;html=1;strokeWidth=1;align=left;verticalAlign=middle;spacingTop=-1;spacingLeft=3;spacingRight=3;rotatable=0;labelPosition=right;points=[];portConstraint=eastwest;" parent="zkfFHV4jXpPFQw0GAbJ--0" vertex="1">
          <mxGeometry y="156" width="130" height="8" as="geometry" />
        </mxCell>
        <mxCell id="zkfFHV4jXpPFQw0GAbJ--5" value="update_stock(quantity)" style="text;align=left;verticalAlign=top;spacingLeft=4;spacingRight=4;overflow=hidden;rotatable=0;points=[[0,0.5],[1,0.5]];portConstraint=eastwest;" parent="zkfFHV4jXpPFQw0GAbJ--0" vertex="1">
          <mxGeometry y="164" width="130" height="26" as="geometry" />
        </mxCell>
        <mxCell id="DKI0FBBjCw4Z8pUlrbn_-4" value="to_dict()" style="text;align=left;verticalAlign=top;spacingLeft=4;spacingRight=4;overflow=hidden;rotatable=0;points=[[0,0.5],[1,0.5]];portConstraint=eastwest;" parent="zkfFHV4jXpPFQw0GAbJ--0" vertex="1">
          <mxGeometry y="190" width="130" height="26" as="geometry" />
        </mxCell>
        <mxCell id="DKI0FBBjCw4Z8pUlrbn_-5" value="from_dict(data)" style="text;align=left;verticalAlign=top;spacingLeft=4;spacingRight=4;overflow=hidden;rotatable=0;points=[[0,0.5],[1,0.5]];portConstraint=eastwest;" parent="zkfFHV4jXpPFQw0GAbJ--0" vertex="1">
          <mxGeometry y="216" width="130" height="26" as="geometry" />
        </mxCell>
        <mxCell id="zkfFHV4jXpPFQw0GAbJ--17" value="CartItem" style="swimlane;fontStyle=0;align=center;verticalAlign=top;childLayout=stackLayout;horizontal=1;startSize=26;horizontalStack=0;resizeParent=1;resizeLast=0;collapsible=1;marginBottom=0;rounded=0;shadow=0;strokeWidth=1;" parent="WIyWlLk6GJQsqaUBKTNV-1" vertex="1">
          <mxGeometry x="235" y="240" width="130" height="112" as="geometry">
            <mxRectangle x="508" y="120" width="160" height="26" as="alternateBounds" />
          </mxGeometry>
        </mxCell>
        <mxCell id="zkfFHV4jXpPFQw0GAbJ--18" value="product: Product" style="text;align=left;verticalAlign=top;spacingLeft=4;spacingRight=4;overflow=hidden;rotatable=0;points=[[0,0.5],[1,0.5]];portConstraint=eastwest;" parent="zkfFHV4jXpPFQw0GAbJ--17" vertex="1">
          <mxGeometry y="26" width="130" height="26" as="geometry" />
        </mxCell>
        <mxCell id="zkfFHV4jXpPFQw0GAbJ--19" value="quantity: int" style="text;align=left;verticalAlign=top;spacingLeft=4;spacingRight=4;overflow=hidden;rotatable=0;points=[[0,0.5],[1,0.5]];portConstraint=eastwest;rounded=0;shadow=0;html=0;" parent="zkfFHV4jXpPFQw0GAbJ--17" vertex="1">
          <mxGeometry y="52" width="130" height="26" as="geometry" />
        </mxCell>
        <mxCell id="zkfFHV4jXpPFQw0GAbJ--23" value="" style="line;html=1;strokeWidth=1;align=left;verticalAlign=middle;spacingTop=-1;spacingLeft=3;spacingRight=3;rotatable=0;labelPosition=right;points=[];portConstraint=eastwest;" parent="zkfFHV4jXpPFQw0GAbJ--17" vertex="1">
          <mxGeometry y="78" width="130" height="8" as="geometry" />
        </mxCell>
        <mxCell id="zkfFHV4jXpPFQw0GAbJ--24" value="subtotal()" style="text;align=left;verticalAlign=top;spacingLeft=4;spacingRight=4;overflow=hidden;rotatable=0;points=[[0,0.5],[1,0.5]];portConstraint=eastwest;" parent="zkfFHV4jXpPFQw0GAbJ--17" vertex="1">
          <mxGeometry y="86" width="130" height="26" as="geometry" />
        </mxCell>
        <mxCell id="DKI0FBBjCw4Z8pUlrbn_-7" value="ShoppingCart" style="swimlane;fontStyle=2;align=center;verticalAlign=top;childLayout=stackLayout;horizontal=1;startSize=26;horizontalStack=0;resizeParent=1;resizeLast=0;collapsible=1;marginBottom=0;rounded=0;shadow=0;strokeWidth=1;" parent="WIyWlLk6GJQsqaUBKTNV-1" vertex="1">
          <mxGeometry x="220" y="30" width="160" height="170" as="geometry">
            <mxRectangle x="230" y="140" width="160" height="26" as="alternateBounds" />
          </mxGeometry>
        </mxCell>
        <mxCell id="DKI0FBBjCw4Z8pUlrbn_-8" value="items: List[CartItem]" style="text;align=left;verticalAlign=top;spacingLeft=4;spacingRight=4;overflow=hidden;rotatable=0;points=[[0,0.5],[1,0.5]];portConstraint=eastwest;" parent="DKI0FBBjCw4Z8pUlrbn_-7" vertex="1">
          <mxGeometry y="26" width="160" height="26" as="geometry" />
        </mxCell>
        <mxCell id="I-bOM3SAnrfnJg7YNh3z-1" value="customer: Customer" style="text;align=left;verticalAlign=top;spacingLeft=4;spacingRight=4;overflow=hidden;rotatable=0;points=[[0,0.5],[1,0.5]];portConstraint=eastwest;" vertex="1" parent="DKI0FBBjCw4Z8pUlrbn_-7">
          <mxGeometry y="52" width="160" height="26" as="geometry" />
        </mxCell>
        <mxCell id="DKI0FBBjCw4Z8pUlrbn_-13" value="" style="line;html=1;strokeWidth=1;align=left;verticalAlign=middle;spacingTop=-1;spacingLeft=3;spacingRight=3;rotatable=0;labelPosition=right;points=[];portConstraint=eastwest;" parent="DKI0FBBjCw4Z8pUlrbn_-7" vertex="1">
          <mxGeometry y="78" width="160" height="8" as="geometry" />
        </mxCell>
        <mxCell id="DKI0FBBjCw4Z8pUlrbn_-14" value="add_item(product, quantity)" style="text;align=left;verticalAlign=top;spacingLeft=4;spacingRight=4;overflow=hidden;rotatable=0;points=[[0,0.5],[1,0.5]];portConstraint=eastwest;" parent="DKI0FBBjCw4Z8pUlrbn_-7" vertex="1">
          <mxGeometry y="86" width="160" height="26" as="geometry" />
        </mxCell>
        <mxCell id="DKI0FBBjCw4Z8pUlrbn_-15" value="remove_item(product_id)" style="text;align=left;verticalAlign=top;spacingLeft=4;spacingRight=4;overflow=hidden;rotatable=0;points=[[0,0.5],[1,0.5]];portConstraint=eastwest;" parent="DKI0FBBjCw4Z8pUlrbn_-7" vertex="1">
          <mxGeometry y="112" width="160" height="26" as="geometry" />
        </mxCell>
        <mxCell id="DKI0FBBjCw4Z8pUlrbn_-16" value="total_price()" style="text;align=left;verticalAlign=top;spacingLeft=4;spacingRight=4;overflow=hidden;rotatable=0;points=[[0,0.5],[1,0.5]];portConstraint=eastwest;" parent="DKI0FBBjCw4Z8pUlrbn_-7" vertex="1">
          <mxGeometry y="138" width="160" height="26" as="geometry" />
        </mxCell>
        <mxCell id="DKI0FBBjCw4Z8pUlrbn_-21" value="Order" style="swimlane;fontStyle=2;align=center;verticalAlign=top;childLayout=stackLayout;horizontal=1;startSize=26;horizontalStack=0;resizeParent=1;resizeLast=0;collapsible=1;marginBottom=0;rounded=0;shadow=0;strokeWidth=1;" parent="WIyWlLk6GJQsqaUBKTNV-1" vertex="1">
          <mxGeometry x="660" y="12" width="210" height="216" as="geometry">
            <mxRectangle x="230" y="140" width="160" height="26" as="alternateBounds" />
          </mxGeometry>
        </mxCell>
        <mxCell id="DKI0FBBjCw4Z8pUlrbn_-22" value="id: int" style="text;align=left;verticalAlign=top;spacingLeft=4;spacingRight=4;overflow=hidden;rotatable=0;points=[[0,0.5],[1,0.5]];portConstraint=eastwest;" parent="DKI0FBBjCw4Z8pUlrbn_-21" vertex="1">
          <mxGeometry y="26" width="210" height="26" as="geometry" />
        </mxCell>
        <mxCell id="luBoeH97McLYvLyS9uhL-21" value="customer: Customer" style="text;align=left;verticalAlign=top;spacingLeft=4;spacingRight=4;overflow=hidden;rotatable=0;points=[[0,0.5],[1,0.5]];portConstraint=eastwest;" parent="DKI0FBBjCw4Z8pUlrbn_-21" vertex="1">
          <mxGeometry y="52" width="210" height="26" as="geometry" />
        </mxCell>
        <mxCell id="luBoeH97McLYvLyS9uhL-24" value="items: List[CartItem]" style="text;align=left;verticalAlign=top;spacingLeft=4;spacingRight=4;overflow=hidden;rotatable=0;points=[[0,0.5],[1,0.5]];portConstraint=eastwest;" parent="DKI0FBBjCw4Z8pUlrbn_-21" vertex="1">
          <mxGeometry y="78" width="210" height="26" as="geometry" />
        </mxCell>
        <mxCell id="luBoeH97McLYvLyS9uhL-25" value="status: str" style="text;align=left;verticalAlign=top;spacingLeft=4;spacingRight=4;overflow=hidden;rotatable=0;points=[[0,0.5],[1,0.5]];portConstraint=eastwest;" parent="DKI0FBBjCw4Z8pUlrbn_-21" vertex="1">
          <mxGeometry y="104" width="210" height="26" as="geometry" />
        </mxCell>
        <mxCell id="luBoeH97McLYvLyS9uhL-26" value="total: float" style="text;align=left;verticalAlign=top;spacingLeft=4;spacingRight=4;overflow=hidden;rotatable=0;points=[[0,0.5],[1,0.5]];portConstraint=eastwest;" parent="DKI0FBBjCw4Z8pUlrbn_-21" vertex="1">
          <mxGeometry y="130" width="210" height="26" as="geometry" />
        </mxCell>
        <mxCell id="DKI0FBBjCw4Z8pUlrbn_-23" value="" style="line;html=1;strokeWidth=1;align=left;verticalAlign=middle;spacingTop=-1;spacingLeft=3;spacingRight=3;rotatable=0;labelPosition=right;points=[];portConstraint=eastwest;" parent="DKI0FBBjCw4Z8pUlrbn_-21" vertex="1">
          <mxGeometry y="156" width="210" height="8" as="geometry" />
        </mxCell>
        <mxCell id="DKI0FBBjCw4Z8pUlrbn_-27" value="to_dict()" style="text;align=left;verticalAlign=top;spacingLeft=4;spacingRight=4;overflow=hidden;rotatable=0;points=[[0,0.5],[1,0.5]];portConstraint=eastwest;" parent="DKI0FBBjCw4Z8pUlrbn_-21" vertex="1">
          <mxGeometry y="164" width="210" height="26" as="geometry" />
        </mxCell>
        <mxCell id="I-bOM3SAnrfnJg7YNh3z-3" value="from_dict(data, customers, products)" style="text;align=left;verticalAlign=top;spacingLeft=4;spacingRight=4;overflow=hidden;rotatable=0;points=[[0,0.5],[1,0.5]];portConstraint=eastwest;" vertex="1" parent="DKI0FBBjCw4Z8pUlrbn_-21">
          <mxGeometry y="190" width="210" height="26" as="geometry" />
        </mxCell>
        <mxCell id="luBoeH97McLYvLyS9uhL-0" value="Customer" style="swimlane;fontStyle=2;align=center;verticalAlign=top;childLayout=stackLayout;horizontal=1;startSize=26;horizontalStack=0;resizeParent=1;resizeLast=0;collapsible=1;marginBottom=0;rounded=0;shadow=0;strokeWidth=1;" parent="WIyWlLk6GJQsqaUBKTNV-1" vertex="1">
          <mxGeometry x="450" y="38" width="130" height="190" as="geometry">
            <mxRectangle x="230" y="140" width="160" height="26" as="alternateBounds" />
          </mxGeometry>
        </mxCell>
        <mxCell id="luBoeH97McLYvLyS9uhL-1" value="id: int&#xa;" style="text;align=left;verticalAlign=top;spacingLeft=4;spacingRight=4;overflow=hidden;rotatable=0;points=[[0,0.5],[1,0.5]];portConstraint=eastwest;" parent="luBoeH97McLYvLyS9uhL-0" vertex="1">
          <mxGeometry y="26" width="130" height="26" as="geometry" />
        </mxCell>
        <mxCell id="luBoeH97McLYvLyS9uhL-14" value="name: str" style="text;align=left;verticalAlign=top;spacingLeft=4;spacingRight=4;overflow=hidden;rotatable=0;points=[[0,0.5],[1,0.5]];portConstraint=eastwest;" parent="luBoeH97McLYvLyS9uhL-0" vertex="1">
          <mxGeometry y="52" width="130" height="26" as="geometry" />
        </mxCell>
        <mxCell id="luBoeH97McLYvLyS9uhL-15" value="email: str" style="text;align=left;verticalAlign=top;spacingLeft=4;spacingRight=4;overflow=hidden;rotatable=0;points=[[0,0.5],[1,0.5]];portConstraint=eastwest;" parent="luBoeH97McLYvLyS9uhL-0" vertex="1">
          <mxGeometry y="78" width="130" height="26" as="geometry" />
        </mxCell>
        <mxCell id="luBoeH97McLYvLyS9uhL-16" value="adress: str" style="text;align=left;verticalAlign=top;spacingLeft=4;spacingRight=4;overflow=hidden;rotatable=0;points=[[0,0.5],[1,0.5]];portConstraint=eastwest;" parent="luBoeH97McLYvLyS9uhL-0" vertex="1">
          <mxGeometry y="104" width="130" height="26" as="geometry" />
        </mxCell>
        <mxCell id="luBoeH97McLYvLyS9uhL-2" value="" style="line;html=1;strokeWidth=1;align=left;verticalAlign=middle;spacingTop=-1;spacingLeft=3;spacingRight=3;rotatable=0;labelPosition=right;points=[];portConstraint=eastwest;" parent="luBoeH97McLYvLyS9uhL-0" vertex="1">
          <mxGeometry y="130" width="130" height="8" as="geometry" />
        </mxCell>
        <mxCell id="luBoeH97McLYvLyS9uhL-5" value="from_dict(data)" style="text;align=left;verticalAlign=top;spacingLeft=4;spacingRight=4;overflow=hidden;rotatable=0;points=[[0,0.5],[1,0.5]];portConstraint=eastwest;" parent="luBoeH97McLYvLyS9uhL-0" vertex="1">
          <mxGeometry y="138" width="130" height="26" as="geometry" />
        </mxCell>
        <mxCell id="luBoeH97McLYvLyS9uhL-6" value="to_dict()" style="text;align=left;verticalAlign=top;spacingLeft=4;spacingRight=4;overflow=hidden;rotatable=0;points=[[0,0.5],[1,0.5]];portConstraint=eastwest;" parent="luBoeH97McLYvLyS9uhL-0" vertex="1">
          <mxGeometry y="164" width="130" height="26" as="geometry" />
        </mxCell>
        <mxCell id="luBoeH97McLYvLyS9uhL-7" value="Delivery" style="swimlane;fontStyle=2;align=center;verticalAlign=top;childLayout=stackLayout;horizontal=1;startSize=26;horizontalStack=0;resizeParent=1;resizeLast=0;collapsible=1;marginBottom=0;rounded=0;shadow=0;strokeWidth=1;" parent="WIyWlLk6GJQsqaUBKTNV-1" vertex="1">
          <mxGeometry x="840" y="460" width="130" height="164" as="geometry">
            <mxRectangle x="230" y="140" width="160" height="26" as="alternateBounds" />
          </mxGeometry>
        </mxCell>
        <mxCell id="luBoeH97McLYvLyS9uhL-8" value="order_id: int" style="text;align=left;verticalAlign=top;spacingLeft=4;spacingRight=4;overflow=hidden;rotatable=0;points=[[0,0.5],[1,0.5]];portConstraint=eastwest;" parent="luBoeH97McLYvLyS9uhL-7" vertex="1">
          <mxGeometry y="26" width="130" height="26" as="geometry" />
        </mxCell>
        <mxCell id="luBoeH97McLYvLyS9uhL-43" value="adress: str" style="text;align=left;verticalAlign=top;spacingLeft=4;spacingRight=4;overflow=hidden;rotatable=0;points=[[0,0.5],[1,0.5]];portConstraint=eastwest;" parent="luBoeH97McLYvLyS9uhL-7" vertex="1">
          <mxGeometry y="52" width="130" height="26" as="geometry" />
        </mxCell>
        <mxCell id="luBoeH97McLYvLyS9uhL-44" value="status: str" style="text;align=left;verticalAlign=top;spacingLeft=4;spacingRight=4;overflow=hidden;rotatable=0;points=[[0,0.5],[1,0.5]];portConstraint=eastwest;" parent="luBoeH97McLYvLyS9uhL-7" vertex="1">
          <mxGeometry y="78" width="130" height="26" as="geometry" />
        </mxCell>
        <mxCell id="luBoeH97McLYvLyS9uhL-9" value="" style="line;html=1;strokeWidth=1;align=left;verticalAlign=middle;spacingTop=-1;spacingLeft=3;spacingRight=3;rotatable=0;labelPosition=right;points=[];portConstraint=eastwest;" parent="luBoeH97McLYvLyS9uhL-7" vertex="1">
          <mxGeometry y="104" width="130" height="8" as="geometry" />
        </mxCell>
        <mxCell id="luBoeH97McLYvLyS9uhL-13" value="to_dict()" style="text;align=left;verticalAlign=top;spacingLeft=4;spacingRight=4;overflow=hidden;rotatable=0;points=[[0,0.5],[1,0.5]];portConstraint=eastwest;" parent="luBoeH97McLYvLyS9uhL-7" vertex="1">
          <mxGeometry y="112" width="130" height="26" as="geometry" />
        </mxCell>
        <mxCell id="luBoeH97McLYvLyS9uhL-83" value="from_dict(data)" style="text;align=left;verticalAlign=top;spacingLeft=4;spacingRight=4;overflow=hidden;rotatable=0;points=[[0,0.5],[1,0.5]];portConstraint=eastwest;" parent="luBoeH97McLYvLyS9uhL-7" vertex="1">
          <mxGeometry y="138" width="130" height="26" as="geometry" />
        </mxCell>
        <mxCell id="luBoeH97McLYvLyS9uhL-35" value="Payment" style="swimlane;fontStyle=2;align=center;verticalAlign=top;childLayout=stackLayout;horizontal=1;startSize=26;horizontalStack=0;resizeParent=1;resizeLast=0;collapsible=1;marginBottom=0;rounded=0;shadow=0;strokeWidth=1;" parent="WIyWlLk6GJQsqaUBKTNV-1" vertex="1">
          <mxGeometry x="840" y="240" width="130" height="190" as="geometry">
            <mxRectangle x="230" y="140" width="160" height="26" as="alternateBounds" />
          </mxGeometry>
        </mxCell>
        <mxCell id="luBoeH97McLYvLyS9uhL-36" value="order_id: int" style="text;align=left;verticalAlign=top;spacingLeft=4;spacingRight=4;overflow=hidden;rotatable=0;points=[[0,0.5],[1,0.5]];portConstraint=eastwest;" parent="luBoeH97McLYvLyS9uhL-35" vertex="1">
          <mxGeometry y="26" width="130" height="26" as="geometry" />
        </mxCell>
        <mxCell id="luBoeH97McLYvLyS9uhL-37" value="amount: float" style="text;align=left;verticalAlign=top;spacingLeft=4;spacingRight=4;overflow=hidden;rotatable=0;points=[[0,0.5],[1,0.5]];portConstraint=eastwest;" parent="luBoeH97McLYvLyS9uhL-35" vertex="1">
          <mxGeometry y="52" width="130" height="26" as="geometry" />
        </mxCell>
        <mxCell id="luBoeH97McLYvLyS9uhL-38" value="method: str" style="text;align=left;verticalAlign=top;spacingLeft=4;spacingRight=4;overflow=hidden;rotatable=0;points=[[0,0.5],[1,0.5]];portConstraint=eastwest;" parent="luBoeH97McLYvLyS9uhL-35" vertex="1">
          <mxGeometry y="78" width="130" height="26" as="geometry" />
        </mxCell>
        <mxCell id="luBoeH97McLYvLyS9uhL-39" value="status: str" style="text;align=left;verticalAlign=top;spacingLeft=4;spacingRight=4;overflow=hidden;rotatable=0;points=[[0,0.5],[1,0.5]];portConstraint=eastwest;" parent="luBoeH97McLYvLyS9uhL-35" vertex="1">
          <mxGeometry y="104" width="130" height="26" as="geometry" />
        </mxCell>
        <mxCell id="luBoeH97McLYvLyS9uhL-40" value="" style="line;html=1;strokeWidth=1;align=left;verticalAlign=middle;spacingTop=-1;spacingLeft=3;spacingRight=3;rotatable=0;labelPosition=right;points=[];portConstraint=eastwest;" parent="luBoeH97McLYvLyS9uhL-35" vertex="1">
          <mxGeometry y="130" width="130" height="8" as="geometry" />
        </mxCell>
        <mxCell id="luBoeH97McLYvLyS9uhL-42" value="to_dict()" style="text;align=left;verticalAlign=top;spacingLeft=4;spacingRight=4;overflow=hidden;rotatable=0;points=[[0,0.5],[1,0.5]];portConstraint=eastwest;" parent="luBoeH97McLYvLyS9uhL-35" vertex="1">
          <mxGeometry y="138" width="130" height="26" as="geometry" />
        </mxCell>
        <mxCell id="-Mn54NZ6_ILR-ryxQF3A-2" value="from_dict(data)" style="text;align=left;verticalAlign=top;spacingLeft=4;spacingRight=4;overflow=hidden;rotatable=0;points=[[0,0.5],[1,0.5]];portConstraint=eastwest;" parent="luBoeH97McLYvLyS9uhL-35" vertex="1">
          <mxGeometry y="164" width="130" height="26" as="geometry" />
        </mxCell>
        <mxCell id="luBoeH97McLYvLyS9uhL-45" value="StoreManager" style="swimlane;fontStyle=2;align=center;verticalAlign=top;childLayout=stackLayout;horizontal=1;startSize=26;horizontalStack=0;resizeParent=1;resizeLast=0;collapsible=1;marginBottom=0;rounded=0;shadow=0;strokeWidth=1;" parent="WIyWlLk6GJQsqaUBKTNV-1" vertex="1">
          <mxGeometry x="270" y="500" width="230" height="610" as="geometry">
            <mxRectangle x="230" y="140" width="160" height="26" as="alternateBounds" />
          </mxGeometry>
        </mxCell>
        <mxCell id="luBoeH97McLYvLyS9uhL-46" value="products: List[Product]" style="text;align=left;verticalAlign=top;spacingLeft=4;spacingRight=4;overflow=hidden;rotatable=0;points=[[0,0.5],[1,0.5]];portConstraint=eastwest;" parent="luBoeH97McLYvLyS9uhL-45" vertex="1">
          <mxGeometry y="26" width="230" height="26" as="geometry" />
        </mxCell>
        <mxCell id="luBoeH97McLYvLyS9uhL-47" value="customers :List[Customer]" style="text;align=left;verticalAlign=top;spacingLeft=4;spacingRight=4;overflow=hidden;rotatable=0;points=[[0,0.5],[1,0.5]];portConstraint=eastwest;" parent="luBoeH97McLYvLyS9uhL-45" vertex="1">
          <mxGeometry y="52" width="230" height="26" as="geometry" />
        </mxCell>
        <mxCell id="I-bOM3SAnrfnJg7YNh3z-4" value="categories: List[Category]" style="text;align=left;verticalAlign=top;spacingLeft=4;spacingRight=4;overflow=hidden;rotatable=0;points=[[0,0.5],[1,0.5]];portConstraint=eastwest;" vertex="1" parent="luBoeH97McLYvLyS9uhL-45">
          <mxGeometry y="78" width="230" height="26" as="geometry" />
        </mxCell>
        <mxCell id="luBoeH97McLYvLyS9uhL-51" value="orders:List[Order]" style="text;align=left;verticalAlign=top;spacingLeft=4;spacingRight=4;overflow=hidden;rotatable=0;points=[[0,0.5],[1,0.5]];portConstraint=eastwest;" parent="luBoeH97McLYvLyS9uhL-45" vertex="1">
          <mxGeometry y="104" width="230" height="26" as="geometry" />
        </mxCell>
        <mxCell id="luBoeH97McLYvLyS9uhL-52" value="payments: List[Payment]" style="text;align=left;verticalAlign=top;spacingLeft=4;spacingRight=4;overflow=hidden;rotatable=0;points=[[0,0.5],[1,0.5]];portConstraint=eastwest;" parent="luBoeH97McLYvLyS9uhL-45" vertex="1">
          <mxGeometry y="130" width="230" height="26" as="geometry" />
        </mxCell>
        <mxCell id="luBoeH97McLYvLyS9uhL-53" value="deliveries: List[Delivery]" style="text;align=left;verticalAlign=top;spacingLeft=4;spacingRight=4;overflow=hidden;rotatable=0;points=[[0,0.5],[1,0.5]];portConstraint=eastwest;" parent="luBoeH97McLYvLyS9uhL-45" vertex="1">
          <mxGeometry y="156" width="230" height="26" as="geometry" />
        </mxCell>
        <mxCell id="-Mn54NZ6_ILR-ryxQF3A-0" value="reviews: List[Review]" style="text;align=left;verticalAlign=top;spacingLeft=4;spacingRight=4;overflow=hidden;rotatable=0;points=[[0,0.5],[1,0.5]];portConstraint=eastwest;" parent="luBoeH97McLYvLyS9uhL-45" vertex="1">
          <mxGeometry y="182" width="230" height="26" as="geometry" />
        </mxCell>
        <mxCell id="luBoeH97McLYvLyS9uhL-49" value="" style="line;html=1;strokeWidth=1;align=left;verticalAlign=middle;spacingTop=-1;spacingLeft=3;spacingRight=3;rotatable=0;labelPosition=right;points=[];portConstraint=eastwest;" parent="luBoeH97McLYvLyS9uhL-45" vertex="1">
          <mxGeometry y="208" width="230" height="8" as="geometry" />
        </mxCell>
        <mxCell id="luBoeH97McLYvLyS9uhL-50" value="add_product()" style="text;align=left;verticalAlign=top;spacingLeft=4;spacingRight=4;overflow=hidden;rotatable=0;points=[[0,0.5],[1,0.5]];portConstraint=eastwest;" parent="luBoeH97McLYvLyS9uhL-45" vertex="1">
          <mxGeometry y="216" width="230" height="26" as="geometry" />
        </mxCell>
        <mxCell id="luBoeH97McLYvLyS9uhL-54" value="find_product()" style="text;align=left;verticalAlign=top;spacingLeft=4;spacingRight=4;overflow=hidden;rotatable=0;points=[[0,0.5],[1,0.5]];portConstraint=eastwest;" parent="luBoeH97McLYvLyS9uhL-45" vertex="1">
          <mxGeometry y="242" width="230" height="26" as="geometry" />
        </mxCell>
        <mxCell id="luBoeH97McLYvLyS9uhL-55" value="update_product(product_id, **kwargs)" style="text;align=left;verticalAlign=top;spacingLeft=4;spacingRight=4;overflow=hidden;rotatable=0;points=[[0,0.5],[1,0.5]];portConstraint=eastwest;" parent="luBoeH97McLYvLyS9uhL-45" vertex="1">
          <mxGeometry y="268" width="230" height="26" as="geometry" />
        </mxCell>
        <mxCell id="luBoeH97McLYvLyS9uhL-56" value="remove_product()" style="text;align=left;verticalAlign=top;spacingLeft=4;spacingRight=4;overflow=hidden;rotatable=0;points=[[0,0.5],[1,0.5]];portConstraint=eastwest;" parent="luBoeH97McLYvLyS9uhL-45" vertex="1">
          <mxGeometry y="294" width="230" height="26" as="geometry" />
        </mxCell>
        <mxCell id="luBoeH97McLYvLyS9uhL-57" value="add_category()" style="text;align=left;verticalAlign=top;spacingLeft=4;spacingRight=4;overflow=hidden;rotatable=0;points=[[0,0.5],[1,0.5]];portConstraint=eastwest;" parent="luBoeH97McLYvLyS9uhL-45" vertex="1">
          <mxGeometry y="320" width="230" height="26" as="geometry" />
        </mxCell>
        <mxCell id="luBoeH97McLYvLyS9uhL-58" value="add_customer()" style="text;align=left;verticalAlign=top;spacingLeft=4;spacingRight=4;overflow=hidden;rotatable=0;points=[[0,0.5],[1,0.5]];portConstraint=eastwest;" parent="luBoeH97McLYvLyS9uhL-45" vertex="1">
          <mxGeometry y="346" width="230" height="26" as="geometry" />
        </mxCell>
        <mxCell id="luBoeH97McLYvLyS9uhL-59" value="find_customer()" style="text;align=left;verticalAlign=top;spacingLeft=4;spacingRight=4;overflow=hidden;rotatable=0;points=[[0,0.5],[1,0.5]];portConstraint=eastwest;" parent="luBoeH97McLYvLyS9uhL-45" vertex="1">
          <mxGeometry y="372" width="230" height="26" as="geometry" />
        </mxCell>
        <mxCell id="-Mn54NZ6_ILR-ryxQF3A-1" value="create_order()" style="text;align=left;verticalAlign=top;spacingLeft=4;spacingRight=4;overflow=hidden;rotatable=0;points=[[0,0.5],[1,0.5]];portConstraint=eastwest;" parent="luBoeH97McLYvLyS9uhL-45" vertex="1">
          <mxGeometry y="398" width="230" height="26" as="geometry" />
        </mxCell>
        <mxCell id="luBoeH97McLYvLyS9uhL-60" value="add_payment()" style="text;align=left;verticalAlign=top;spacingLeft=4;spacingRight=4;overflow=hidden;rotatable=0;points=[[0,0.5],[1,0.5]];portConstraint=eastwest;" parent="luBoeH97McLYvLyS9uhL-45" vertex="1">
          <mxGeometry y="424" width="230" height="26" as="geometry" />
        </mxCell>
        <mxCell id="luBoeH97McLYvLyS9uhL-61" value="add_delivery()" style="text;align=left;verticalAlign=top;spacingLeft=4;spacingRight=4;overflow=hidden;rotatable=0;points=[[0,0.5],[1,0.5]];portConstraint=eastwest;" parent="luBoeH97McLYvLyS9uhL-45" vertex="1">
          <mxGeometry y="450" width="230" height="26" as="geometry" />
        </mxCell>
        <mxCell id="luBoeH97McLYvLyS9uhL-62" value="add_review()" style="text;align=left;verticalAlign=top;spacingLeft=4;spacingRight=4;overflow=hidden;rotatable=0;points=[[0,0.5],[1,0.5]];portConstraint=eastwest;" parent="luBoeH97McLYvLyS9uhL-45" vertex="1">
          <mxGeometry y="476" width="230" height="26" as="geometry" />
        </mxCell>
        <mxCell id="luBoeH97McLYvLyS9uhL-63" value="save_to_json()" style="text;align=left;verticalAlign=top;spacingLeft=4;spacingRight=4;overflow=hidden;rotatable=0;points=[[0,0.5],[1,0.5]];portConstraint=eastwest;" parent="luBoeH97McLYvLyS9uhL-45" vertex="1">
          <mxGeometry y="502" width="230" height="26" as="geometry" />
        </mxCell>
        <mxCell id="I-bOM3SAnrfnJg7YNh3z-5" value="load_from_json()" style="text;align=left;verticalAlign=top;spacingLeft=4;spacingRight=4;overflow=hidden;rotatable=0;points=[[0,0.5],[1,0.5]];portConstraint=eastwest;" vertex="1" parent="luBoeH97McLYvLyS9uhL-45">
          <mxGeometry y="528" width="230" height="26" as="geometry" />
        </mxCell>
        <mxCell id="I-bOM3SAnrfnJg7YNh3z-6" value="save_to_xml()" style="text;align=left;verticalAlign=top;spacingLeft=4;spacingRight=4;overflow=hidden;rotatable=0;points=[[0,0.5],[1,0.5]];portConstraint=eastwest;" vertex="1" parent="luBoeH97McLYvLyS9uhL-45">
          <mxGeometry y="554" width="230" height="26" as="geometry" />
        </mxCell>
        <mxCell id="I-bOM3SAnrfnJg7YNh3z-7" value="load_from_xml()" style="text;align=left;verticalAlign=top;spacingLeft=4;spacingRight=4;overflow=hidden;rotatable=0;points=[[0,0.5],[1,0.5]];portConstraint=eastwest;" vertex="1" parent="luBoeH97McLYvLyS9uhL-45">
          <mxGeometry y="580" width="230" height="26" as="geometry" />
        </mxCell>
        <mxCell id="luBoeH97McLYvLyS9uhL-65" value="Review" style="swimlane;fontStyle=2;align=center;verticalAlign=top;childLayout=stackLayout;horizontal=1;startSize=26;horizontalStack=0;resizeParent=1;resizeLast=0;collapsible=1;marginBottom=0;rounded=0;shadow=0;strokeWidth=1;" parent="WIyWlLk6GJQsqaUBKTNV-1" vertex="1">
          <mxGeometry y="340" width="130" height="216" as="geometry">
            <mxRectangle x="230" y="140" width="160" height="26" as="alternateBounds" />
          </mxGeometry>
        </mxCell>
        <mxCell id="luBoeH97McLYvLyS9uhL-66" value="id: int" style="text;align=left;verticalAlign=top;spacingLeft=4;spacingRight=4;overflow=hidden;rotatable=0;points=[[0,0.5],[1,0.5]];portConstraint=eastwest;" parent="luBoeH97McLYvLyS9uhL-65" vertex="1">
          <mxGeometry y="26" width="130" height="26" as="geometry" />
        </mxCell>
        <mxCell id="luBoeH97McLYvLyS9uhL-67" value="product_id: int" style="text;align=left;verticalAlign=top;spacingLeft=4;spacingRight=4;overflow=hidden;rotatable=0;points=[[0,0.5],[1,0.5]];portConstraint=eastwest;" parent="luBoeH97McLYvLyS9uhL-65" vertex="1">
          <mxGeometry y="52" width="130" height="26" as="geometry" />
        </mxCell>
        <mxCell id="luBoeH97McLYvLyS9uhL-68" value="customer_id" style="text;align=left;verticalAlign=top;spacingLeft=4;spacingRight=4;overflow=hidden;rotatable=0;points=[[0,0.5],[1,0.5]];portConstraint=eastwest;" parent="luBoeH97McLYvLyS9uhL-65" vertex="1">
          <mxGeometry y="78" width="130" height="26" as="geometry" />
        </mxCell>
        <mxCell id="luBoeH97McLYvLyS9uhL-71" value="rating: int" style="text;align=left;verticalAlign=top;spacingLeft=4;spacingRight=4;overflow=hidden;rotatable=0;points=[[0,0.5],[1,0.5]];portConstraint=eastwest;" parent="luBoeH97McLYvLyS9uhL-65" vertex="1">
          <mxGeometry y="104" width="130" height="26" as="geometry" />
        </mxCell>
        <mxCell id="luBoeH97McLYvLyS9uhL-72" value="comment: str" style="text;align=left;verticalAlign=top;spacingLeft=4;spacingRight=4;overflow=hidden;rotatable=0;points=[[0,0.5],[1,0.5]];portConstraint=eastwest;" parent="luBoeH97McLYvLyS9uhL-65" vertex="1">
          <mxGeometry y="130" width="130" height="26" as="geometry" />
        </mxCell>
        <mxCell id="luBoeH97McLYvLyS9uhL-69" value="" style="line;html=1;strokeWidth=1;align=left;verticalAlign=middle;spacingTop=-1;spacingLeft=3;spacingRight=3;rotatable=0;labelPosition=right;points=[];portConstraint=eastwest;" parent="luBoeH97McLYvLyS9uhL-65" vertex="1">
          <mxGeometry y="156" width="130" height="8" as="geometry" />
        </mxCell>
        <mxCell id="luBoeH97McLYvLyS9uhL-70" value="to_dict()" style="text;align=left;verticalAlign=top;spacingLeft=4;spacingRight=4;overflow=hidden;rotatable=0;points=[[0,0.5],[1,0.5]];portConstraint=eastwest;" parent="luBoeH97McLYvLyS9uhL-65" vertex="1">
          <mxGeometry y="164" width="130" height="26" as="geometry" />
        </mxCell>
        <mxCell id="luBoeH97McLYvLyS9uhL-82" value="from_dict(data)" style="text;align=left;verticalAlign=top;spacingLeft=4;spacingRight=4;overflow=hidden;rotatable=0;points=[[0,0.5],[1,0.5]];portConstraint=eastwest;" parent="luBoeH97McLYvLyS9uhL-65" vertex="1">
          <mxGeometry y="190" width="130" height="26" as="geometry" />
        </mxCell>
        <mxCell id="luBoeH97McLYvLyS9uhL-73" value="Category" style="swimlane;fontStyle=2;align=center;verticalAlign=top;childLayout=stackLayout;horizontal=1;startSize=26;horizontalStack=0;resizeParent=1;resizeLast=0;collapsible=1;marginBottom=0;rounded=0;shadow=0;strokeWidth=1;" parent="WIyWlLk6GJQsqaUBKTNV-1" vertex="1">
          <mxGeometry x="850" y="640" width="130" height="170" as="geometry">
            <mxRectangle x="230" y="140" width="160" height="26" as="alternateBounds" />
          </mxGeometry>
        </mxCell>
        <mxCell id="luBoeH97McLYvLyS9uhL-74" value="id: int" style="text;align=left;verticalAlign=top;spacingLeft=4;spacingRight=4;overflow=hidden;rotatable=0;points=[[0,0.5],[1,0.5]];portConstraint=eastwest;" parent="luBoeH97McLYvLyS9uhL-73" vertex="1">
          <mxGeometry y="26" width="130" height="26" as="geometry" />
        </mxCell>
        <mxCell id="luBoeH97McLYvLyS9uhL-75" value="name: str" style="text;align=left;verticalAlign=top;spacingLeft=4;spacingRight=4;overflow=hidden;rotatable=0;points=[[0,0.5],[1,0.5]];portConstraint=eastwest;" parent="luBoeH97McLYvLyS9uhL-73" vertex="1">
          <mxGeometry y="52" width="130" height="26" as="geometry" />
        </mxCell>
        <mxCell id="luBoeH97McLYvLyS9uhL-76" value="description: str" style="text;align=left;verticalAlign=top;spacingLeft=4;spacingRight=4;overflow=hidden;rotatable=0;points=[[0,0.5],[1,0.5]];portConstraint=eastwest;" parent="luBoeH97McLYvLyS9uhL-73" vertex="1">
          <mxGeometry y="78" width="130" height="26" as="geometry" />
        </mxCell>
        <mxCell id="luBoeH97McLYvLyS9uhL-79" value="" style="line;html=1;strokeWidth=1;align=left;verticalAlign=middle;spacingTop=-1;spacingLeft=3;spacingRight=3;rotatable=0;labelPosition=right;points=[];portConstraint=eastwest;" parent="luBoeH97McLYvLyS9uhL-73" vertex="1">
          <mxGeometry y="104" width="130" height="8" as="geometry" />
        </mxCell>
        <mxCell id="luBoeH97McLYvLyS9uhL-80" value="to_dict()" style="text;align=left;verticalAlign=top;spacingLeft=4;spacingRight=4;overflow=hidden;rotatable=0;points=[[0,0.5],[1,0.5]];portConstraint=eastwest;" parent="luBoeH97McLYvLyS9uhL-73" vertex="1">
          <mxGeometry y="112" width="130" height="26" as="geometry" />
        </mxCell>
        <mxCell id="luBoeH97McLYvLyS9uhL-81" value="from_dict(data)" style="text;align=left;verticalAlign=top;spacingLeft=4;spacingRight=4;overflow=hidden;rotatable=0;points=[[0,0.5],[1,0.5]];portConstraint=eastwest;" parent="luBoeH97McLYvLyS9uhL-73" vertex="1">
          <mxGeometry y="138" width="130" height="26" as="geometry" />
        </mxCell>
        <mxCell id="I-bOM3SAnrfnJg7YNh3z-13" value="" style="endArrow=diamondThin;endFill=0;endSize=24;html=1;rounded=0;exitX=0.432;exitY=0.002;exitDx=0;exitDy=0;entryX=1;entryY=0.5;entryDx=0;entryDy=0;exitPerimeter=0;" edge="1" parent="WIyWlLk6GJQsqaUBKTNV-1" source="luBoeH97McLYvLyS9uhL-45" target="luBoeH97McLYvLyS9uhL-71">
          <mxGeometry width="160" relative="1" as="geometry">
            <mxPoint x="520" y="499" as="sourcePoint" />
            <mxPoint x="680" y="499" as="targetPoint" />
            <Array as="points">
              <mxPoint x="370" y="457" />
            </Array>
          </mxGeometry>
        </mxCell>
        <mxCell id="I-bOM3SAnrfnJg7YNh3z-14" value="" style="endArrow=diamondThin;endFill=0;endSize=24;html=1;rounded=0;exitX=0.5;exitY=0;exitDx=0;exitDy=0;entryX=1;entryY=0.5;entryDx=0;entryDy=0;" edge="1" parent="WIyWlLk6GJQsqaUBKTNV-1" source="luBoeH97McLYvLyS9uhL-45" target="zkfFHV4jXpPFQw0GAbJ--3">
          <mxGeometry width="160" relative="1" as="geometry">
            <mxPoint x="595" y="493" as="sourcePoint" />
            <mxPoint x="340" y="420" as="targetPoint" />
            <Array as="points">
              <mxPoint x="385" y="400" />
              <mxPoint x="190" y="400" />
              <mxPoint x="190" y="140" />
            </Array>
          </mxGeometry>
        </mxCell>
        <mxCell id="I-bOM3SAnrfnJg7YNh3z-15" value="" style="endArrow=diamondThin;endFill=0;endSize=24;html=1;rounded=0;entryX=0;entryY=0.5;entryDx=0;entryDy=0;" edge="1" parent="WIyWlLk6GJQsqaUBKTNV-1" target="luBoeH97McLYvLyS9uhL-15">
          <mxGeometry width="160" relative="1" as="geometry">
            <mxPoint x="400" y="496" as="sourcePoint" />
            <mxPoint x="350" y="430" as="targetPoint" />
            <Array as="points">
              <mxPoint x="400" y="129" />
            </Array>
          </mxGeometry>
        </mxCell>
        <mxCell id="I-bOM3SAnrfnJg7YNh3z-16" value="" style="endArrow=diamondThin;endFill=0;endSize=24;html=1;rounded=0;exitX=0.655;exitY=-0.002;exitDx=0;exitDy=0;exitPerimeter=0;entryX=0.493;entryY=1.162;entryDx=0;entryDy=0;entryPerimeter=0;" edge="1" parent="WIyWlLk6GJQsqaUBKTNV-1" source="luBoeH97McLYvLyS9uhL-45" target="I-bOM3SAnrfnJg7YNh3z-3">
          <mxGeometry width="160" relative="1" as="geometry">
            <mxPoint x="430" y="677" as="sourcePoint" />
            <mxPoint x="700" y="270" as="targetPoint" />
            <Array as="points">
              <mxPoint x="421" y="280" />
              <mxPoint x="764" y="280" />
            </Array>
          </mxGeometry>
        </mxCell>
        <mxCell id="I-bOM3SAnrfnJg7YNh3z-18" value="" style="endArrow=diamondThin;endFill=0;endSize=24;html=1;rounded=0;exitX=0.75;exitY=0;exitDx=0;exitDy=0;entryX=0;entryY=0.5;entryDx=0;entryDy=0;" edge="1" parent="WIyWlLk6GJQsqaUBKTNV-1" source="luBoeH97McLYvLyS9uhL-45" target="luBoeH97McLYvLyS9uhL-38">
          <mxGeometry width="160" relative="1" as="geometry">
            <mxPoint x="460" y="547" as="sourcePoint" />
            <mxPoint x="760" y="280" as="targetPoint" />
            <Array as="points">
              <mxPoint x="443" y="330" />
            </Array>
          </mxGeometry>
        </mxCell>
        <mxCell id="I-bOM3SAnrfnJg7YNh3z-19" value="" style="endArrow=diamondThin;endFill=0;endSize=24;html=1;rounded=0;exitX=0.85;exitY=-0.005;exitDx=0;exitDy=0;exitPerimeter=0;entryX=-0.023;entryY=0.854;entryDx=0;entryDy=0;entryPerimeter=0;" edge="1" parent="WIyWlLk6GJQsqaUBKTNV-1" source="luBoeH97McLYvLyS9uhL-45" target="luBoeH97McLYvLyS9uhL-44">
          <mxGeometry width="160" relative="1" as="geometry">
            <mxPoint x="560" y="500" as="sourcePoint" />
            <mxPoint x="830" y="570" as="targetPoint" />
            <Array as="points">
              <mxPoint x="466" y="360" />
              <mxPoint x="680" y="360" />
              <mxPoint x="680" y="560" />
            </Array>
          </mxGeometry>
        </mxCell>
        <mxCell id="I-bOM3SAnrfnJg7YNh3z-27" value="" style="endArrow=diamondThin;endFill=0;endSize=24;html=1;rounded=0;exitX=0.85;exitY=-0.005;exitDx=0;exitDy=0;exitPerimeter=0;entryX=0;entryY=0.5;entryDx=0;entryDy=0;" edge="1" parent="WIyWlLk6GJQsqaUBKTNV-1" target="luBoeH97McLYvLyS9uhL-75">
          <mxGeometry width="160" relative="1" as="geometry">
            <mxPoint x="480" y="497" as="sourcePoint" />
            <mxPoint x="851" y="560" as="targetPoint" />
            <Array as="points">
              <mxPoint x="480" y="400" />
              <mxPoint x="640" y="400" />
              <mxPoint x="640" y="705" />
            </Array>
          </mxGeometry>
        </mxCell>
        <mxCell id="I-bOM3SAnrfnJg7YNh3z-28" value="" style="endArrow=open;endFill=1;endSize=12;html=1;rounded=0;exitX=1;exitY=0.5;exitDx=0;exitDy=0;entryX=-0.017;entryY=0.208;entryDx=0;entryDy=0;entryPerimeter=0;" edge="1" parent="WIyWlLk6GJQsqaUBKTNV-1" source="I-bOM3SAnrfnJg7YNh3z-1" target="luBoeH97McLYvLyS9uhL-14">
          <mxGeometry width="160" relative="1" as="geometry">
            <mxPoint x="390" y="20" as="sourcePoint" />
            <mxPoint x="550" y="20" as="targetPoint" />
          </mxGeometry>
        </mxCell>
        <mxCell id="I-bOM3SAnrfnJg7YNh3z-29" value="" style="endArrow=diamondThin;endFill=1;endSize=24;html=1;rounded=0;exitX=0.5;exitY=1;exitDx=0;exitDy=0;entryX=0.5;entryY=0;entryDx=0;entryDy=0;" edge="1" parent="WIyWlLk6GJQsqaUBKTNV-1" source="DKI0FBBjCw4Z8pUlrbn_-7" target="zkfFHV4jXpPFQw0GAbJ--17">
          <mxGeometry width="160" relative="1" as="geometry">
            <mxPoint x="400" y="320" as="sourcePoint" />
            <mxPoint x="560" y="320" as="targetPoint" />
          </mxGeometry>
        </mxCell>
        <mxCell id="I-bOM3SAnrfnJg7YNh3z-30" value="" style="endArrow=open;endFill=1;endSize=12;html=1;rounded=0;" edge="1" parent="WIyWlLk6GJQsqaUBKTNV-1">
          <mxGeometry width="160" relative="1" as="geometry">
            <mxPoint x="233" y="270" as="sourcePoint" />
            <mxPoint x="130" y="270" as="targetPoint" />
            <Array as="points">
              <mxPoint x="200" y="270" />
            </Array>
          </mxGeometry>
        </mxCell>
        <mxCell id="I-bOM3SAnrfnJg7YNh3z-32" value="" style="endArrow=open;endFill=1;endSize=12;html=1;rounded=0;exitX=-0.012;exitY=0.946;exitDx=0;exitDy=0;exitPerimeter=0;entryX=1.005;entryY=-0.054;entryDx=0;entryDy=0;entryPerimeter=0;" edge="1" parent="WIyWlLk6GJQsqaUBKTNV-1" source="luBoeH97McLYvLyS9uhL-24" target="luBoeH97McLYvLyS9uhL-15">
          <mxGeometry width="160" relative="1" as="geometry">
            <mxPoint x="600" y="115" as="sourcePoint" />
            <mxPoint x="620" y="60" as="targetPoint" />
          </mxGeometry>
        </mxCell>
        <mxCell id="I-bOM3SAnrfnJg7YNh3z-33" value="" style="endArrow=diamondThin;endFill=1;endSize=24;html=1;rounded=0;entryX=1.022;entryY=-0.131;entryDx=0;entryDy=0;entryPerimeter=0;exitX=0.19;exitY=1.069;exitDx=0;exitDy=0;exitPerimeter=0;" edge="1" parent="WIyWlLk6GJQsqaUBKTNV-1" source="I-bOM3SAnrfnJg7YNh3z-3" target="zkfFHV4jXpPFQw0GAbJ--18">
          <mxGeometry width="160" relative="1" as="geometry">
            <mxPoint x="700" y="260" as="sourcePoint" />
            <mxPoint x="600" y="280" as="targetPoint" />
            <Array as="points">
              <mxPoint x="700" y="263" />
            </Array>
          </mxGeometry>
        </mxCell>
        <mxCell id="I-bOM3SAnrfnJg7YNh3z-34" value="" style="endArrow=open;endFill=1;endSize=12;html=1;rounded=0;exitX=0.5;exitY=0;exitDx=0;exitDy=0;entryX=1.005;entryY=0.131;entryDx=0;entryDy=0;entryPerimeter=0;" edge="1" parent="WIyWlLk6GJQsqaUBKTNV-1" source="luBoeH97McLYvLyS9uhL-35" target="luBoeH97McLYvLyS9uhL-25">
          <mxGeometry width="160" relative="1" as="geometry">
            <mxPoint x="1086" y="190" as="sourcePoint" />
            <mxPoint x="910" y="90" as="targetPoint" />
            <Array as="points">
              <mxPoint x="905" y="119" />
            </Array>
          </mxGeometry>
        </mxCell>
        <mxCell id="I-bOM3SAnrfnJg7YNh3z-35" value="" style="endArrow=open;endFill=1;endSize=12;html=1;rounded=0;exitX=1.002;exitY=0.089;exitDx=0;exitDy=0;exitPerimeter=0;entryX=1.009;entryY=0.223;entryDx=0;entryDy=0;entryPerimeter=0;" edge="1" parent="WIyWlLk6GJQsqaUBKTNV-1" source="luBoeH97McLYvLyS9uhL-7" target="luBoeH97McLYvLyS9uhL-21">
          <mxGeometry width="160" relative="1" as="geometry">
            <mxPoint x="1104" y="461" as="sourcePoint" />
            <mxPoint x="960" y="110" as="targetPoint" />
            <Array as="points">
              <mxPoint x="1010" y="475" />
              <mxPoint x="1010" y="70" />
            </Array>
          </mxGeometry>
        </mxCell>
        <mxCell id="I-bOM3SAnrfnJg7YNh3z-37" value="" style="endArrow=open;endFill=1;endSize=12;html=1;rounded=0;exitX=0.5;exitY=0;exitDx=0;exitDy=0;entryX=0.497;entryY=0.915;entryDx=0;entryDy=0;entryPerimeter=0;" edge="1" parent="WIyWlLk6GJQsqaUBKTNV-1" source="luBoeH97McLYvLyS9uhL-65" target="DKI0FBBjCw4Z8pUlrbn_-5">
          <mxGeometry width="160" relative="1" as="geometry">
            <mxPoint x="50" y="320" as="sourcePoint" />
            <mxPoint x="118" y="320" as="targetPoint" />
          </mxGeometry>
        </mxCell>
        <mxCell id="I-bOM3SAnrfnJg7YNh3z-38" value="" style="endArrow=open;endFill=1;endSize=12;html=1;rounded=0;exitX=0;exitY=0.5;exitDx=0;exitDy=0;entryX=0.5;entryY=0;entryDx=0;entryDy=0;" edge="1" parent="WIyWlLk6GJQsqaUBKTNV-1" source="luBoeH97McLYvLyS9uhL-71" target="luBoeH97McLYvLyS9uhL-0">
          <mxGeometry width="160" relative="1" as="geometry">
            <mxPoint x="-80" y="370" as="sourcePoint" />
            <mxPoint x="510" y="-30" as="targetPoint" />
            <Array as="points">
              <mxPoint x="-60" y="457" />
              <mxPoint x="-60" y="-20" />
              <mxPoint x="515" y="-20" />
            </Array>
          </mxGeometry>
        </mxCell>
      </root>
    </mxGraphModel>
  </diagram>
</mxfile>
